<svg width="64" height="64" viewBox="0 0 64 64" fill="none" xmlns="http://www.w3.org/2000/svg">
<circle cx="32" cy="32" r="32" fill="black"/>
<path d="M11.7369 18.4341V13.1541C14.7591 13.1897 20.1551 13.1541 20.5903 13.1541C21.2836 13.1541 21.7103 12.9941 22.1903 13.3674C31.968 23.6608 51.5693 44.3008 51.8436 44.6208C52.2093 45.0474 52.3236 45.2074 52.3236 45.5808V50.8608H42.6169C42.1903 50.8608 41.8347 50.683 41.7103 50.5941C31.9503 40.283 12.3556 19.5968 12.0569 19.3408C11.7583 19.0848 11.7191 18.6297 11.7369 18.4341Z" fill="white"/>
<path d="M11.7333 50.8267V25.0667C13.409 26.6683 15.9088 29.4208 18.3467 31.9467C20.5902 34.2712 22.8058 36.385 23.7333 37.6533C26.3467 41.2267 25.6533 45.28 23.7333 47.7867C22.0953 49.9252 19.2355 50.7911 17.8133 50.8267H11.7333Z" fill="white"/>
<path d="M52.3232 13.12L52.3232 38.88C50.6475 37.2784 48.1477 34.5259 45.7098 32C43.4663 29.6754 41.2507 27.5616 40.3232 26.2933C37.7098 22.72 38.4032 18.6667 40.3232 16.16C41.9612 14.0215 44.8209 13.1556 46.2432 13.12H52.3232Z" fill="white"/>
</svg>
